<svg width="41" height="40" viewBox="0 0 41 40" fill="none" xmlns="http://www.w3.org/2000/svg">
<path opacity="0.4" d="M34.6666 16.984H29.85C25.9 16.984 22.6833 13.7673 22.6833 9.81732V5.00065C22.6833 4.08398 21.9333 3.33398 21.0166 3.33398H13.95C8.81663 3.33398 4.66663 6.66732 4.66663 12.6173V27.384C4.66663 33.334 8.81663 36.6673 13.95 36.6673H27.05C32.1833 36.6673 36.3333 33.334 36.3333 27.384V18.6507C36.3333 17.734 35.5833 16.984 34.6666 16.984Z" fill="#292D32"/>
<path d="M26.8333 3.68414C26.15 3.0008 24.9667 3.46747 24.9667 4.41747V10.2341C24.9667 12.6675 27.0333 14.6841 29.55 14.6841C31.1333 14.7008 33.3333 14.7008 35.2167 14.7008C36.1667 14.7008 36.6667 13.5841 36 12.9175C33.6 10.5008 29.3 6.1508 26.8333 3.68414Z" fill="#292D32"/>
<path d="M19.7166 20.784L16.3833 17.4507C16.3666 17.434 16.3499 17.434 16.3499 17.4173C16.2499 17.3173 16.1166 17.234 15.9833 17.1673C15.9666 17.1673 15.9666 17.1673 15.9499 17.1673C15.8166 17.1173 15.6833 17.1007 15.5499 17.084C15.4999 17.084 15.4666 17.084 15.4166 17.084C15.3166 17.084 15.1999 17.1173 15.0999 17.1507C15.0499 17.1673 15.0166 17.184 14.9833 17.2007C14.8499 17.2673 14.7166 17.334 14.6166 17.4507L11.2833 20.784C10.7999 21.2673 10.7999 22.0673 11.2833 22.5507C11.7666 23.034 12.5666 23.034 13.0499 22.5507L14.2499 21.3507V28.334C14.2499 29.0173 14.8166 29.584 15.4999 29.584C16.1833 29.584 16.7499 29.0173 16.7499 28.334V21.3507L17.9499 22.5507C18.1999 22.8007 18.5166 22.9173 18.8333 22.9173C19.1499 22.9173 19.4666 22.8007 19.7166 22.5507C20.1999 22.0673 20.1999 21.2673 19.7166 20.784Z" fill="#292D32"/>
</svg>
