<svg xmlns="http://www.w3.org/2000/svg" width="18" height="18" viewBox="0 0 18 18" fill="none">
<path d="M12.85 4.15373L9.09097 2.93516C8.96789 2.89531 8.83484 2.89531 8.71177 2.93516L4.95217 4.15373C4.35462 4.34684 3.83486 4.7181 3.46671 5.21476C3.09856 5.71142 2.90075 6.30824 2.90137 6.92044V9.90531C2.90137 14.317 8.42137 16.7535 8.65777 16.855C8.73446 16.8882 8.81745 16.9053 8.90137 16.9053C8.98529 16.9053 9.06828 16.8882 9.14497 16.855C9.38137 16.7535 14.9014 14.317 14.9014 9.90531V6.92044C14.9019 6.30817 14.704 5.7113 14.3358 5.21463C13.9675 4.71795 13.4476 4.34674 12.85 4.15373Z" fill="white"/>
<path d="M8.803 14.4682C8.43556 14.4682 8.1377 14.1703 8.1377 13.8029V9.14577C8.1377 8.77833 8.43556 8.48047 8.803 8.48047C9.17044 8.48047 9.4683 8.77834 9.4683 9.14577V13.8029C9.4683 14.1703 9.17044 14.4682 8.803 14.4682Z" fill="currentColor"/>
<path d="M8.15454 6.72719C8.33485 6.90548 8.55096 6.99463 8.80286 6.99463C9.05475 6.99463 9.26953 6.90548 9.44719 6.72719C9.6275 6.54607 9.71765 6.32958 9.71765 6.07771C9.71765 5.82867 9.6275 5.61501 9.44719 5.43672C9.26953 5.2556 9.05475 5.16504 8.80286 5.16504C8.55096 5.16504 8.33485 5.2556 8.15454 5.43672C7.97689 5.61501 7.88806 5.82867 7.88806 6.07771C7.88806 6.32958 7.97689 6.54607 8.15454 6.72719Z" fill="currentColor"/>
</svg>