<svg xmlns="http://www.w3.org/2000/svg" width="20" height="20" viewBox="0 0 20 20" fill="none">
  <g clip-path="url(#clip0_2085_17541)">
    <path d="M15.484 1.78353L10.2632 0.0427007C10.0922 -0.0142336 9.90744 -0.0142336 9.73651 0.0427007L4.51484 1.78353C3.68492 2.05941 2.96302 2.58979 2.4517 3.29932C1.94039 4.00885 1.66564 4.86146 1.66651 5.73603V10.0002C1.66651 16.3027 9.33317 19.7835 9.66151 19.9285C9.76802 19.9759 9.88328 20.0003 9.99984 20.0003C10.1164 20.0003 10.2317 19.9759 10.3382 19.9285C10.6665 19.7835 18.3332 16.3027 18.3332 10.0002V5.73603C18.334 4.86136 18.0591 4.00867 17.5476 3.29913C17.0362 2.58958 16.3141 2.05927 15.484 1.78353Z" fill="currentColor"/>
    <path d="M9.99991 16.3635C9.49783 16.3635 9.09082 15.9564 9.09082 15.4544V9.09073C9.09082 8.58865 9.49783 8.18164 9.99991 8.18164C10.502 8.18164 10.909 8.58865 10.909 9.09073V15.4544C10.909 15.9564 10.502 16.3635 9.99991 16.3635Z" fill="white"/>
    <path d="M9.11413 5.78594C9.36051 6.02956 9.6558 6.15137 10 6.15137C10.3442 6.15137 10.6377 6.02956 10.8804 5.78594C11.1268 5.53845 11.25 5.24263 11.25 4.89847C11.25 4.55817 11.1268 4.26622 10.8804 4.0226C10.6377 3.77511 10.3442 3.65137 10 3.65137C9.6558 3.65137 9.36051 3.77511 9.11413 4.0226C8.87138 4.26622 8.75 4.55817 8.75 4.89847C8.75 5.24263 8.87138 5.53845 9.11413 5.78594Z" fill="white"/>
  </g>
  <defs>
    <clipPath id="clip0_2085_17541">
      <rect width="20" height="20" fill="white"/>
    </clipPath>
  </defs>
</svg>