<svg xmlns="http://www.w3.org/2000/svg" width="15" height="18" viewBox="0 0 15 18" fill="none">
  <path d="M8.737 3.20395C8.737 4.97337 7.30263 6.4079 5.53305 6.4079C3.76363 6.4079 2.3291 4.97341 2.3291 3.20395C2.3291 1.43449 3.76359 0 5.53305 0C7.30263 0 8.737 1.43449 8.737 3.20395Z" fill="currentColor" fill-opacity="0.4"/>
  <path d="M10.2663 8.44922C7.64179 8.44922 5.5332 10.5802 5.5332 13.1823C5.5332 15.7844 7.66434 17.9154 10.2663 17.9154C12.8684 17.9154 14.9994 15.7844 14.9994 13.1823C14.9994 10.5802 12.8908 8.44922 10.2663 8.44922ZM6.87915 11.1635C7.03625 10.8944 7.23809 10.6251 7.48485 10.4009C8.40459 9.48116 9.68312 9.07747 11.0067 9.30171C11.5226 9.39137 12.0161 9.59337 12.4424 9.88489C12.9582 10.2213 13.3621 10.6701 13.6536 11.1636C13.7432 11.3207 13.6985 11.5449 13.519 11.6347L13.3619 11.702C12.5767 12.061 11.6795 12.061 10.8943 11.7244C10.7149 11.6347 10.4907 11.5898 10.2663 11.5898C10.0419 11.5898 9.84001 11.6347 9.63817 11.7244C8.85297 12.0608 7.95578 12.0608 7.17059 11.702L7.01365 11.6346C6.85671 11.5449 6.78927 11.3205 6.87908 11.1636L6.87915 11.1635ZM9.68312 16.3229L9.63821 16.7042C9.61584 16.906 9.41383 17.0406 9.23452 16.9958C8.58408 16.8164 7.95583 16.4799 7.46249 15.9864C6.72224 15.2462 6.296 14.2592 6.296 13.2049C6.296 12.9805 6.52038 12.8235 6.72224 12.8908L7.37269 13.0703C8.02313 13.2498 8.60647 13.6311 9.01016 14.1695L9.03254 14.1919C9.50369 14.7752 9.75044 15.5379 9.68314 16.3229H9.68312ZM10.3112 13.9676C9.84006 13.99 9.45876 13.6087 9.48128 13.1377C9.50365 12.734 9.81769 12.4198 10.2215 12.3975C10.6927 12.3751 11.074 12.7564 11.0515 13.2274C11.0515 13.6311 10.7149 13.9451 10.3112 13.9676ZM13.0479 15.9641C12.5544 16.4576 11.9487 16.8165 11.2982 16.9735C11.0964 17.0184 10.9169 16.8838 10.8945 16.6818L10.8721 16.3005C10.8049 15.5153 11.0516 14.7526 11.5226 14.1469L11.545 14.1246C11.9487 13.5862 12.532 13.2048 13.1824 13.0254L13.8105 12.8459C14.0124 12.801 14.2142 12.9356 14.2142 13.1599C14.2144 14.2368 13.8105 15.2238 13.0479 15.9641Z" fill="currentColor" fill-opacity="0.4"/>
  <path d="M10.1941 8.16196C9.65397 7.28816 8.8889 6.57111 7.96622 6.12305C7.3137 6.68318 6.4585 7.01918 5.53586 7.01918C4.61322 7.01918 3.75818 6.68316 3.1055 6.14537C1.32782 7.06403 0.0900937 8.90118 0 11.0745V12.9118C0 13.6512 2.38531 14.2562 5.33329 14.2786C5.26579 13.9425 5.22074 13.584 5.22074 13.2255C5.2209 10.4473 7.44877 8.20673 10.1944 8.16192L10.1941 8.16196Z" fill="currentColor" fill-opacity="0.4"/>
</svg>